<svg id="Layer_1" data-name="Layer 1" xmlns="http://www.w3.org/2000/svg" viewBox="0 0 472.97 97.74"><defs><style>.cls-1{fill:#ffd600;}.cls-2{fill:#1d1d1d;}</style></defs><title>Untitled-2</title><g id="_Group_" data-name="&lt;Group&gt;"><rect id="_Path_" data-name="&lt;Path&gt;" class="cls-1" y="19.18" width="472.97" height="61.61"/><g id="_Group_2" data-name="&lt;Group&gt;"><path id="_Compound_Path_" data-name="&lt;Compound Path&gt;" class="cls-2" d="M73.64,32.46v50.9h7.74V99.92H45.94V83.36H54.5V48.75H46.08V32.46ZM53.27,14.81c0-6.92,5.43-10.72,11-10.72,6,0,11.4,3.94,11.4,11,0,6.65-5.43,10.59-11.13,10.59S53.27,21.6,53.27,14.81Z" transform="translate(-3.03 -4.09)"/><path id="_Compound_Path_2" data-name="&lt;Compound Path&gt;" class="cls-2" d="M174.49,99.92V83.3h9.64V34.22L153.86,69.65h-4.07L120.47,33.41V83.3h9.23V99.92h-40V83.3h10.86V23.23H89.65V4.9H124L152.5,42.64,180.87,4.9h33.39V23.23H204V83.3h10V99.92Z" transform="translate(-3.03 -4.09)"/><path id="_Compound_Path_3" data-name="&lt;Compound Path&gt;" class="cls-2" d="M254.59,30.83c22.94,0,35.84,14.8,35.84,35.57,0,19.14-13.3,35.16-35.7,35.16S219,86.62,219,66.39C219,45.63,232.73,30.83,254.59,30.83Zm.41,17c-11.4,0-17.1,7.87-17.1,18.6,0,9.37,5.43,17.51,16.83,17.51s16.83-8.15,17.1-17.51C271.83,55.67,265.31,47.8,255,47.8Z" transform="translate(-3.03 -4.09)"/><path id="_Compound_Path_4" data-name="&lt;Compound Path&gt;" class="cls-2" d="M308.21,48.88h-8.69V32.46h24.84l1.77,6.38C331.29,33,337.8,30.69,345,30.69c6,0,13.17,1.9,18.33,6.52L354.5,53.36a19.94,19.94,0,0,0-12.62-4.21c-7.47,0-14.8,4.21-14.8,16V83.63h9.37V99.92H297.89V83.63h10.32Z" transform="translate(-3.03 -4.09)"/><path id="_Compound_Path_5" data-name="&lt;Compound Path&gt;" class="cls-2" d="M430.52,91.24c-7.33,7.19-19.41,10.59-29.32,10.59-26.2,0-37.19-16-37.19-36.11,0-21,14.12-35,36.24-35,22.4,0,36.52,11.81,32.58,42.22H383.28c1,6.79,7.06,11.81,18.33,11.81,5.43,0,13.17-2,17.78-5.84ZM415.45,58.52c.27-8.28-6.65-11.67-15.07-11.67s-15.61,3.8-17.24,11.67Z" transform="translate(-3.03 -4.09)"/></g></g></svg>